<svg xmlns="http://www.w3.org/2000/svg" xmlns:xlink="http://www.w3.org/1999/xlink" version="1.1" baseProfile="tiny" x="0px" y="0px" viewBox="0 0 100 125" xml:space="preserve"><g><path fill="#000000" d="M50.5,78.3c-14.9,0-30-9.3-28.9-27.5c0.6-9.1,5.9-14.9,12.6-17.5c1.1-0.4,2.2-0.8,3.3-1   c1.7-0.4,3.5-0.6,5.3-0.6c0.3,0,0.6,0,1,0c-2.2-1.6-4.7-3.2-7.6-3.2h-0.1c-3.5,0.1-5.2,3.3-7.5,5c1.8-2.4,4.1-5.8,8.2-5.8H37   c4.1,0.1,7.7,2.6,11.1,3.9c0.5-3.1-0.2-5.2-0.4-7.8c0.5-0.2,1-0.3,1.4-0.3c2.9,0,2.5,5.3,3.3,7.7c5-3.6,9.3-8.2,15.9-9.8   c0.5,0.1,1,0.1,1.4,0.2c0.2,0.3-0.2,0.3-0.7,0.3c-0.1,0-0.3,0-0.4,0h-0.4c-0.3,0-0.6,0-0.8,0.1c-2.4,0.5-8.3,4.5-9.2,7.2   C58,30,58,31,58.1,31.9c1.1-0.2,2.2-0.3,3.4-0.4h0c0.2,0,0.4,0,0.6,0c0.7,0,1.3,0,2,0.1l0.7,0.1h0c1.1,0.2,2.2,0.6,3.4,1.2   c6.6,3.4,9.8,10.5,10.2,18.2v-0.1c0,0.2,0,0.4,0,0.6C79.4,69.5,65,78.3,50.5,78.3z"/></g><text x="0" y="115" fill="#000000" font-size="5px" font-weight="bold" font-family="'Helvetica Neue', Helvetica, Arial-Unicode, Arial, Sans-serif">Created by Philip Glenn</text><text x="0" y="120" fill="#000000" font-size="5px" font-weight="bold" font-family="'Helvetica Neue', Helvetica, Arial-Unicode, Arial, Sans-serif">from the Noun Project</text></svg>