<?xml version="1.0" encoding="UTF-8"?>
<svg width="66px" height="55px" viewBox="0 0 66 55" version="1.1" xmlns="http://www.w3.org/2000/svg" xmlns:xlink="http://www.w3.org/1999/xlink">
    <!-- Generator: Sketch 43.2 (39069) - http://www.bohemiancoding.com/sketch -->
    <title>tomato by lino</title>
    <desc>Created with Sketch.</desc>
    <defs></defs>
    <g id="Page-1" stroke="none" stroke-width="1" fill="none" fill-rule="evenodd">
        <g id="tomato-by-lino" transform="translate(-1.000000, -12.000000)" fill="#000000">
            <path d="M33.5751273,67 C52.4793822,67 64.7713433,55.4307692 66.0711856,42.7769231 C67.138164,32.389986 57.6264117,20.4684084 43.2787314,21.8462333 C40,22.1610938 36.9617835,23 33.5751273,23 C30.188471,23 26,22.1610938 22.1020107,22.1610938 C8.43378384,22.1610938 0.0575811459,32.5487162 1.07906892,42.7769231 C2.37891125,55.7923077 14.6708724,67 33.5751273,67 Z" id="tomato"></path>
            <path d="M24.9088607,26.3752885 C21.2341891,25.3057221 12.5923682,30.532612 12.5923682,30.532612 C12.5923682,30.532612 19.309223,22.9917133 23.127107,21.8959905 C27.3405376,20.6867469 32.0422357,20.5467659 32.0422357,20.5467659 C32.0422357,20.5467659 35.2691565,17.3959966 40.5868857,14.2303747 C44.6947445,11.7849835 53.8173693,8.9126454 53.8173693,8.9126454 C53.8173693,8.9126454 44.8684457,14.9969742 43.7778452,17.15916 C42.6872446,19.3213457 27.474923,27.122178 24.9088607,26.3752885 Z" id="Leaves" transform="translate(33.204869, 19.722629) rotate(27.000000) translate(-33.204869, -19.722629) "></path>
            <path d="M30.7922078,14.125 L34.4675325,12.5 C34.4675325,12.5 34.8606867,13.8110961 35.1004626,15.8304582 C36.2632841,25.6235961 38.2727273,35.125 38.2727273,35.125 L30.7922078,35.125 L30.7922078,14.125 Z" id="stem"></path>
        </g>
    </g>
</svg>